<svg width="33" height="35" viewBox="0 0 33 35" fill="none" xmlns="http://www.w3.org/2000/svg">
<g clip-path="url(#clip0_157_86)">
<path d="M18.9434 26.1372H14.0565V31.9422H18.9434V26.1372Z" fill="#FDCC9B"/>
<path d="M14.0566 26.8208C14.0566 26.8208 16.1123 28.2091 18.9436 27.8875V26.137H14.0566V26.8208Z" fill="#FCBC85"/>
<path d="M7.00977 20.021C8.32671 20.021 9.3943 18.7292 9.3943 17.1356C9.3943 15.5421 8.32671 14.2502 7.00977 14.2502C5.69283 14.2502 4.62524 15.5421 4.62524 17.1356C4.62524 18.7292 5.69283 20.021 7.00977 20.021Z" fill="#FCBC85"/>
<path d="M25.9902 20.021C27.3072 20.021 28.3748 18.7292 28.3748 17.1356C28.3748 15.5421 27.3072 14.2502 25.9902 14.2502C24.6733 14.2502 23.6057 15.5421 23.6057 17.1356C23.6057 18.7292 24.6733 20.021 25.9902 20.021Z" fill="#FCBC85"/>
<path d="M25.9807 11.6244C25.9807 7.37444 23.0485 4.2644 16.5001 4.2644C9.95167 4.2644 7.01952 7.37427 7.01952 11.6244C7.01952 15.8746 6.3354 27.0701 16.5001 27.0701C26.6648 27.0701 25.9807 15.8746 25.9807 11.6244Z" fill="#FDCC9B"/>
<path d="M11.8822 17.6367C12.449 17.6367 12.9085 17.103 12.9085 16.4446C12.9085 15.7862 12.449 15.2524 11.8822 15.2524C11.3154 15.2524 10.856 15.7862 10.856 16.4446C10.856 17.103 11.3154 17.6367 11.8822 17.6367Z" fill="#3B2519"/>
<path d="M11.4348 16.2438C11.6043 16.2438 11.7417 16.098 11.7417 15.9183C11.7417 15.7385 11.6043 15.5928 11.4348 15.5928C11.2653 15.5928 11.1279 15.7385 11.1279 15.9183C11.1279 16.098 11.2653 16.2438 11.4348 16.2438Z" fill="white"/>
<path d="M10.2405 13.4902C10.7258 13.7476 11.505 12.6156 13.2887 13.6004C13.6139 13.7799 13.8079 12.0649 11.896 12.0649C10.2405 12.0649 9.94725 13.3348 10.2405 13.4902Z" fill="#51362A"/>
<path d="M21.2445 17.6367C21.8113 17.6367 22.2708 17.103 22.2708 16.4446C22.2708 15.7862 21.8113 15.2524 21.2445 15.2524C20.6777 15.2524 20.2183 15.7862 20.2183 16.4446C20.2183 17.103 20.6777 17.6367 21.2445 17.6367Z" fill="#3B2519"/>
<path d="M20.7971 16.2438C20.9666 16.2438 21.104 16.098 21.104 15.9183C21.104 15.7385 20.9666 15.5928 20.7971 15.5928C20.6276 15.5928 20.4902 15.7385 20.4902 15.9183C20.4902 16.098 20.6276 16.2438 20.7971 16.2438Z" fill="white"/>
<path d="M22.7594 13.4902C22.2741 13.7476 21.4949 12.6156 19.7112 13.6004C19.386 13.7799 19.192 12.0649 21.104 12.0649C22.7594 12.0649 23.0525 13.3348 22.7594 13.4902Z" fill="#51362A"/>
<path d="M16.4999 20.6379C15.4858 20.6379 14.875 19.8346 14.875 20.2232C14.875 20.612 15.1683 21.3506 16.4999 21.3506C17.8316 21.3506 18.1249 20.612 18.1249 20.2232C18.1249 19.8344 17.5139 20.6379 16.4999 20.6379Z" fill="#FCBC85"/>
<path d="M16.5001 24.2119C16.1493 24.2119 15.938 23.934 15.938 24.0685C15.938 24.2031 16.0394 24.4584 16.5001 24.4584C16.9608 24.4584 17.062 24.2031 17.062 24.0685C17.062 23.934 16.8507 24.2119 16.5001 24.2119Z" fill="#FCBC85"/>
<path d="M16.5 23.2216C14.8927 23.2216 13.9243 22.5274 13.9243 22.7034C13.9243 22.8794 14.3892 23.5716 16.5 23.5716C18.6109 23.5716 19.0757 22.8794 19.0757 22.7034C19.0756 22.5274 18.1073 23.2216 16.5 23.2216Z" fill="#F7945E"/>
<path d="M16.5 28.4692V35H4.62524C4.62524 32.3565 10.8801 28.4692 16.5 28.4692Z" fill="#F7941E"/>
<path d="M16.5 28.4692V35H28.3748C28.3748 32.3565 22.1199 28.4692 16.5 28.4692Z" fill="#F7941E"/>
<path d="M16.5001 28.4692C15.3047 28.4692 14.0808 28.6464 12.8943 28.9488C12.9023 28.96 14.2103 30.7498 16.5001 30.7498C18.6204 30.7498 20.0301 29.217 20.2344 28.9813C19.0078 28.6584 17.7387 28.4692 16.5001 28.4692Z" fill="#F36C21"/>
<path d="M14.0565 28.6955C14.0565 28.6955 14.7712 29.6357 16.4999 29.6357C18.2286 29.6357 18.9434 28.6955 18.9434 28.6955C18.9434 28.6955 16.4085 27.7167 14.0565 28.6955Z" fill="#FDCC9B"/>
<path d="M24.2945 3.35754C24.2945 3.35754 20.776 -1.38493 13.463 0.403195C6.15014 2.19114 5.60218 6.85602 5.82213 11.3945C6.04208 15.9331 6.62844 18.5956 7.32204 18.2666C8.01563 17.9374 7.65471 14.9416 7.72802 14.2503C7.80134 13.5589 8.46102 10.4323 12.9087 10.8988C17.3562 11.3654 21.1042 9.65484 21.1042 9.65484C21.1042 9.65484 22.6129 11.6775 23.6057 12.065C25.5898 12.8393 24.9391 18.0019 25.7165 18.0019C26.4938 18.0019 30.3055 6.0786 24.2945 3.35754Z" fill="#51362A"/>
</g>
<defs>
<clipPath id="clip0_157_86">
<rect width="33" height="35" fill="white"/>
</clipPath>
</defs>
</svg>
