<svg width="25" height="25" viewBox="0 0 25 25" fill="none" xmlns="http://www.w3.org/2000/svg">
<g clip-path="url(#clip0_157_1831)">
<path d="M22.65 5.58796L22.0981 3.93333C21.8879 3.30315 21.3002 2.87971 20.6361 2.87971H15.9968V1.36929C15.9968 0.614357 15.3831 0 14.6283 0H10.3799C9.62534 0 9.01136 0.614357 9.01136 1.36929V2.87971H4.37231C3.70798 2.87971 3.12033 3.30315 2.91014 3.93333L2.35815 5.58796C2.23246 5.96466 2.29616 6.3818 2.52829 6.70395C2.76041 7.0261 3.13597 7.21855 3.53308 7.21855H4.11005L5.37996 22.9219C5.47438 24.0871 6.46315 25 7.6314 25H17.6345C18.8025 25 19.7915 24.0871 19.8857 22.9218L21.1556 7.21855H21.4751C21.8722 7.21855 22.2478 7.0261 22.4799 6.70414C22.712 6.38199 22.7757 5.96466 22.65 5.58796ZM10.4762 1.46484H14.532V2.87971H10.4762V1.46484ZM18.4257 22.8037C18.3925 23.214 18.0449 23.5352 17.6345 23.5352H7.6314C7.22094 23.5352 6.87342 23.214 6.84023 22.8037L5.57966 7.21855H19.686L18.4257 22.8037ZM3.84722 5.75371L4.29983 4.39682C4.31013 4.36554 4.33931 4.34456 4.37231 4.34456H20.6361C20.6691 4.34456 20.6981 4.36554 20.7086 4.39682L21.1612 5.75371H3.84722Z" fill="#FF0742"/>
<path d="M16.0896 22.7518C16.1026 22.7525 16.1153 22.7527 16.1283 22.7527C16.5153 22.7527 16.8388 22.4494 16.859 22.0584L17.5468 8.85539C17.5678 8.45141 17.2573 8.10675 16.8535 8.08577C16.4486 8.06422 16.105 8.37512 16.0839 8.77909L15.3963 21.9821C15.3753 22.3861 15.6856 22.7308 16.0896 22.7518Z" fill="#FF0742"/>
<path d="M8.182 22.0603C8.20336 22.4507 8.52647 22.7528 8.9127 22.7528C8.92606 22.7528 8.93979 22.7524 8.95333 22.7517C9.35712 22.7297 9.66668 22.3845 9.64474 21.9805L8.92434 8.77749C8.90241 8.37351 8.55718 8.06395 8.1532 8.08608C7.74942 8.10801 7.43986 8.45324 7.46179 8.85722L8.182 22.0603Z" fill="#FF0742"/>
<path d="M12.5123 22.7529C12.9169 22.7529 13.2448 22.425 13.2448 22.0204V8.81738C13.2448 8.41283 12.9169 8.08496 12.5123 8.08496C12.1078 8.08496 11.7799 8.41283 11.7799 8.81738V22.0204C11.7799 22.425 12.1078 22.7529 12.5123 22.7529Z" fill="#FF0742"/>
</g>
<defs>
<clipPath id="clip0_157_1831">
<rect width="25" height="25" fill="white"/>
</clipPath>
</defs>
</svg>
