<svg width="25" height="25" viewBox="0 0 25 25" fill="none" xmlns="http://www.w3.org/2000/svg">
<g clip-path="url(#clip0_157_1823)">
<path d="M23.074 15.7049C22.7301 15.7049 22.4514 15.9836 22.4514 16.3276V21.8558C22.4502 22.8871 21.6147 23.7227 20.5835 23.7237H3.11315C2.08192 23.7227 1.24648 22.8871 1.24526 21.8558V5.63073C1.24648 4.59974 2.08192 3.76405 3.11315 3.76284H8.64142C8.98532 3.76284 9.26405 3.48411 9.26405 3.14021C9.26405 2.79655 8.98532 2.51758 8.64142 2.51758H3.11315C1.39459 2.51952 0.00194572 3.91217 0 5.63073V21.8561C0.00194572 23.5746 1.39459 24.9673 3.11315 24.9692H20.5835C22.3021 24.9673 23.6947 23.5746 23.6966 21.8561V16.3276C23.6966 15.9836 23.4179 15.7049 23.074 15.7049Z" fill="#0ACF83"/>
<path d="M23.45 0.915394C22.3558 -0.178829 20.5818 -0.178829 19.4876 0.915394L8.37947 12.0235C8.30334 12.0996 8.24837 12.194 8.21967 12.2976L6.75893 17.5712C6.69885 17.7874 6.7599 18.019 6.91848 18.1778C7.07729 18.3364 7.30883 18.3974 7.52505 18.3376L12.7987 16.8766C12.9023 16.8479 12.9967 16.7929 13.0728 16.7168L24.1806 5.60846C25.2732 4.51351 25.2732 2.74096 24.1806 1.64601L23.45 0.915394ZM9.73612 12.4282L18.8272 3.33684L21.7592 6.26879L12.6678 15.3602L9.73612 12.4282ZM9.15046 13.6034L11.4929 15.9461L8.25275 16.8438L9.15046 13.6034ZM23.3002 4.72803L22.6399 5.38835L19.7077 2.45616L20.3682 1.79583C20.976 1.18804 21.9615 1.18804 22.5693 1.79583L23.3002 2.52645C23.907 3.13497 23.907 4.11975 23.3002 4.72803Z" fill="#0ACF83"/>
</g>
<defs>
<clipPath id="clip0_157_1823">
<rect width="25" height="25" fill="white"/>
</clipPath>
</defs>
</svg>
