<svg width="50" height="50" viewBox="0 0 50 50" fill="none" xmlns="http://www.w3.org/2000/svg">
<g clip-path="url(#clip0_68_56)">
<path d="M31.5371 6.11735L48.9919 36.3501C49.632 37.4587 50.0001 38.7441 50.0001 40.1163C50.0001 44.2833 46.622 47.6616 42.4548 47.6616H25.0001L18.9639 25L25.0001 2.33844C27.795 2.33844 30.2332 3.85924 31.5371 6.11735Z" fill="#3B4145"/>
<path d="M18.463 6.11735L1.00811 36.3501C0.368066 37.4587 0 38.7441 0 40.1163C0 44.2833 3.37812 47.6616 7.54531 47.6616H25V2.33844C22.2051 2.33844 19.7669 3.85924 18.463 6.11735Z" fill="#525A61"/>
<path d="M46.3781 37.8591L28.9234 7.62671C28.1367 6.26353 26.692 5.40337 25.1296 5.35913L40.0582 44.6438H42.4546C44.9506 44.6438 46.9818 42.6127 46.9818 40.1167C46.9818 39.3239 46.7725 38.5432 46.3781 37.8591Z" fill="#FFB751"/>
<path d="M43.4428 37.8592C43.7838 38.5433 43.9639 39.3239 43.9639 40.1167C43.9639 42.6127 42.2124 44.6438 40.0584 44.6438H7.54546C5.04946 44.6438 3.01831 42.6127 3.01831 40.1167C3.01831 39.3239 3.22759 38.5433 3.62192 37.8592L21.0766 7.62675C21.8855 6.22635 23.3885 5.35614 25.0001 5.35614C25.0434 5.35614 25.0867 5.35712 25.1299 5.35917C26.4709 5.41151 27.7094 6.26962 28.3844 7.62675L43.4428 37.8592Z" fill="#FFD764"/>
<path d="M25 34.5831V39.6133C26.3894 39.6133 27.5151 38.4875 27.5151 37.0982C27.5151 35.7089 26.3894 34.5831 25 34.5831Z" fill="#3B4145"/>
<path d="M25 34.5831C25.2776 34.5831 25.503 35.7089 25.503 37.0983C25.503 38.4876 25.2776 39.6134 25 39.6134C23.6106 39.6134 22.4849 38.4876 22.4849 37.0983C22.4849 35.7089 23.6106 34.5831 25 34.5831Z" fill="#525A61"/>
<path d="M25 12.9537V31.5655C26.3894 31.5655 27.5151 30.4387 27.5151 29.0503V15.4689C27.5151 14.0795 26.3894 12.9537 25 12.9537Z" fill="#3B4145"/>
<path d="M25 12.9537C25.2776 12.9537 25.503 14.0795 25.503 15.4689V29.0503C25.503 30.4386 25.2776 31.5655 25 31.5655C23.6106 31.5655 22.4849 30.4387 22.4849 29.0503V15.4689C22.4849 14.0795 23.6106 12.9537 25 12.9537Z" fill="#525A61"/>
</g>
<defs>
<clipPath id="clip0_68_56">
<rect width="50" height="50" fill="white"/>
</clipPath>
</defs>
</svg>
