<svg width="40" height="40" viewBox="0 0 40 40" fill="none" xmlns="http://www.w3.org/2000/svg">
<g clip-path="url(#clip0_40_341)">
<path d="M30.6495 6.53527C30.6669 6.53652 30.6843 6.53777 30.702 6.53777C30.7321 6.53777 30.7622 6.53527 30.7916 6.53122C31.5792 6.54712 32.2095 7.18016 32.2105 7.95634C32.2105 8.30903 32.5007 8.59499 32.8586 8.59499C33.2164 8.59499 33.5066 8.30903 33.5066 7.95634C33.505 6.68683 32.6083 5.58852 31.3501 5.31535V4.70164C31.3501 4.34895 31.0599 4.06299 30.702 4.06299C30.3441 4.06299 30.054 4.34895 30.054 4.70164V5.34435C28.7237 5.69486 27.863 6.96312 28.0424 8.30872C28.2218 9.65432 29.3857 10.6603 30.7628 10.6603C31.5624 10.6603 32.2105 11.2993 32.2105 12.0873C32.2105 12.875 31.5624 13.514 30.7628 13.514C29.9632 13.514 29.3151 12.875 29.3151 12.0873C29.3151 11.7346 29.0249 11.4487 28.667 11.4487C28.3091 11.4487 28.019 11.7346 28.019 12.0873C28.0206 13.311 28.8547 14.3815 30.054 14.6993V15.3991C30.054 15.7518 30.3441 16.0377 30.702 16.0377C31.0599 16.0377 31.3501 15.7518 31.3501 15.3991V14.7286C32.7187 14.4333 33.6417 13.1691 33.4908 11.7964C33.3402 10.4236 32.164 9.38333 30.7628 9.38364C29.9853 9.38395 29.3464 8.77898 29.3157 8.0134C29.2854 7.24783 29.8742 6.59515 30.6495 6.53558V6.53527Z" fill="url(#paint0_linear_40_341)"/>
<path d="M30.7997 0.94043C26.8129 0.94043 23.4106 3.50408 22.136 6.93684H6.05122C5.69491 6.93684 5.40569 7.25336 5.40316 7.60418L5.25 30.0082H0.66515C0.30726 30.0082 0 30.2636 0 30.6169V33.4599C0.00822731 36.1365 2.14734 38.3353 4.86047 38.4563V38.4703H24.8694V38.4516C25.0314 38.4575 25.0982 38.4703 25.2007 38.4703H25.2146C28.0227 38.466 30.2969 36.2213 30.2969 33.454V19.0793C30.4589 19.0881 30.6304 19.0928 30.7982 19.0928C35.8716 19.0928 40.0001 15.0164 40.0001 10.0163C40.0001 5.01652 35.8735 0.94043 30.7997 0.94043ZM5.10697 37.193H5.10286C3.00646 37.1902 1.30562 35.5197 1.29612 33.4534V31.2855H20.0899V33.4444C20.0909 34.7772 20.631 36.0548 21.5905 36.9944C21.6585 37.0614 21.743 37.1132 21.8142 37.193H5.10697ZM29.0008 33.4534C29.0011 35.5159 27.3066 37.189 25.214 37.193H25.2017C23.1005 37.1893 21.3965 35.5153 21.3861 33.445V30.6169C21.3914 30.4535 21.3281 30.2954 21.2108 30.18C21.0934 30.0646 20.9329 30.0026 20.7674 30.0082H6.54613L6.69485 8.21415H21.7762C21.6614 8.79885 21.6019 9.3926 21.5987 9.9879C21.5974 11.2468 21.8639 12.4917 22.3809 13.6427H16.2598C15.9016 13.6427 15.6117 13.9287 15.6117 14.2813C15.6117 14.634 15.9016 14.92 16.2598 14.92H23.0841C24.421 16.9919 26.5582 18.4363 29.0008 18.9197V33.4534ZM30.7997 17.8158C26.4342 17.8158 22.8948 14.3281 22.8951 10.0256C22.8951 5.72315 26.4342 2.23551 30.8 2.23551C35.1656 2.23551 38.7046 5.72346 38.7046 10.0256C38.6999 14.3259 35.1637 17.8111 30.7997 17.8158Z" fill="url(#paint1_linear_40_341)"/>
<path d="M12.0999 17.8932C10.956 17.8932 10.0256 18.781 10.0256 19.8725C10.0256 20.9639 10.956 21.8517 12.0999 21.8517C13.2438 21.8517 14.1744 20.9639 14.1744 19.8725C14.1744 18.781 13.2438 17.8932 12.0999 17.8932ZM12.0999 20.5744C11.6705 20.5744 11.3218 20.2595 11.3218 19.8725C11.3218 19.4851 11.6708 19.1705 12.0999 19.1705C12.529 19.1705 12.8783 19.4855 12.8783 19.8725C12.8783 20.2595 12.529 20.5744 12.0999 20.5744Z" fill="url(#paint2_linear_40_341)"/>
<path d="M15.6118 19.8696C15.6118 20.2223 15.9017 20.5083 16.2599 20.5083H24.8999C25.2577 20.5083 25.5479 20.2223 25.5479 19.8696C25.5479 19.5169 25.2577 19.231 24.8999 19.231H16.2599C15.9017 19.231 15.6118 19.5169 15.6118 19.8696Z" fill="url(#paint3_linear_40_341)"/>
<path d="M12.0999 12.3414C10.956 12.3414 10.0256 13.2296 10.0256 14.321C10.0256 15.4125 10.956 16.3003 12.0999 16.3003C13.2438 16.3003 14.1744 15.4125 14.1744 14.321C14.1744 13.2296 13.2438 12.3414 12.0999 12.3414ZM12.0999 15.023C11.6705 15.023 11.3218 14.708 11.3218 14.321C11.3218 13.934 11.6708 13.6187 12.0999 13.6187C12.529 13.6187 12.8783 13.9337 12.8783 14.321C12.8783 14.708 12.529 15.0233 12.0999 15.0233V15.023Z" fill="url(#paint4_linear_40_341)"/>
<path d="M12.0999 23.4442C10.956 23.4442 10.0256 24.332 10.0256 25.4235C10.0256 26.5149 10.956 27.4027 12.0999 27.4027C13.2438 27.4027 14.1744 26.5149 14.1744 25.4235C14.1744 24.332 13.2438 23.4442 12.0999 23.4442ZM12.0999 26.1254C11.6705 26.1254 11.3218 25.8108 11.3218 25.4235C11.3218 25.0365 11.6708 24.7215 12.0999 24.7215C12.529 24.7215 12.8783 25.0365 12.8783 25.4235C12.8783 25.8105 12.529 26.1254 12.0999 26.1254Z" fill="url(#paint5_linear_40_341)"/>
<path d="M24.8999 24.8191H16.2599C15.9017 24.8191 15.6118 25.105 15.6118 25.4577C15.6118 25.8104 15.9017 26.0964 16.2599 26.0964H24.8999C25.2577 26.0964 25.5479 25.8104 25.5479 25.4577C25.5479 25.105 25.2577 24.8191 24.8999 24.8191Z" fill="url(#paint6_linear_40_341)"/>
</g>
<defs>
<linearGradient id="paint0_linear_40_341" x1="30.7629" y1="4.06299" x2="30.7629" y2="16.0377" gradientUnits="userSpaceOnUse">
<stop stop-color="#EC7AB7"/>
<stop offset="1" stop-color="#EC7A7A"/>
</linearGradient>
<linearGradient id="paint1_linear_40_341" x1="20.0001" y1="0.94043" x2="20.0001" y2="38.4703" gradientUnits="userSpaceOnUse">
<stop stop-color="#EC7AB7"/>
<stop offset="1" stop-color="#EC7A7A"/>
</linearGradient>
<linearGradient id="paint2_linear_40_341" x1="12.1" y1="17.8932" x2="12.1" y2="21.8517" gradientUnits="userSpaceOnUse">
<stop stop-color="#EC7AB7"/>
<stop offset="1" stop-color="#EC7A7A"/>
</linearGradient>
<linearGradient id="paint3_linear_40_341" x1="20.5799" y1="19.231" x2="20.5799" y2="20.5083" gradientUnits="userSpaceOnUse">
<stop stop-color="#EC7AB7"/>
<stop offset="1" stop-color="#EC7A7A"/>
</linearGradient>
<linearGradient id="paint4_linear_40_341" x1="12.1" y1="12.3414" x2="12.1" y2="16.3003" gradientUnits="userSpaceOnUse">
<stop stop-color="#EC7AB7"/>
<stop offset="1" stop-color="#EC7A7A"/>
</linearGradient>
<linearGradient id="paint5_linear_40_341" x1="12.1" y1="23.4442" x2="12.1" y2="27.4027" gradientUnits="userSpaceOnUse">
<stop stop-color="#EC7AB7"/>
<stop offset="1" stop-color="#EC7A7A"/>
</linearGradient>
<linearGradient id="paint6_linear_40_341" x1="20.5799" y1="24.8191" x2="20.5799" y2="26.0964" gradientUnits="userSpaceOnUse">
<stop stop-color="#EC7AB7"/>
<stop offset="1" stop-color="#EC7A7A"/>
</linearGradient>
<clipPath id="clip0_40_341">
<rect width="40" height="39.4192" fill="white"/>
</clipPath>
</defs>
</svg>
