<svg width="40" height="40" viewBox="0 0 40 40" fill="none" xmlns="http://www.w3.org/2000/svg">
<path d="M0.574136 26.468L39.4259 26.4681C39.6046 26.4681 39.773 26.3849 39.8817 26.243C39.9904 26.1011 40.0267 25.9167 39.9801 25.7442C38.9231 21.8337 36.5699 18.3058 33.354 15.8103C30.035 13.2348 26.0518 11.8734 21.8353 11.8734H11.4937V10.3735C11.4937 10.0564 11.2367 9.79938 10.9196 9.79938H3.92119C3.6041 9.79938 3.34705 10.0564 3.34705 10.3735V11.8734H0.574136C0.257049 11.8734 0 12.1305 0 12.4475V14.9011V19.1708V25.894C0 26.211 0.257049 26.468 0.574136 26.468ZM1.14827 16.1214L3.87091 17.4603V18.5966H1.14827V16.1214ZM21.1009 16.0135L32.7747 18.5965H21.1009V16.0135ZM21.8354 13.0217C24.1702 13.0217 26.4286 13.4665 28.5277 14.327H20.5268C20.2097 14.327 19.9526 14.5841 19.9526 14.9011V19.1708C19.9526 19.4878 20.2097 19.7449 20.5268 19.7449H35.6953C37.0057 21.409 38.0172 23.3024 38.6588 25.3199L1.14827 25.3197V19.7448H4.44505C4.76213 19.7448 5.01918 19.4878 5.01918 19.1707V14.9011C5.01918 14.584 4.76213 14.3269 4.44505 14.3269H1.14827V13.0216H21.8354V13.0217Z" fill="white"/>
<path d="M39.4259 27.2002H0.574136C0.257049 27.2002 0 27.4572 0 27.7743V29.6266C0 29.9437 0.257049 30.2007 0.574136 30.2007H37.5735C38.9115 30.2007 40 29.1123 40 27.7743C40 27.4572 39.743 27.2002 39.4259 27.2002Z" fill="white"/>
<path d="M13.5153 24.0145H17.9273C18.2444 24.0145 18.5014 23.7574 18.5014 23.4403V14.9011C18.5014 14.584 18.2444 14.327 17.9273 14.327H13.5153C13.1982 14.327 12.9412 14.584 12.9412 14.9011V23.4403C12.9412 23.7574 13.1981 24.0145 13.5153 24.0145ZM14.0894 22.8662V15.9883L17.3532 17.5933V22.8662H14.0894Z" fill="white"/>
<path d="M7.04435 19.7448H10.9153C11.2323 19.7448 11.4894 19.4878 11.4894 19.1707V14.9011C11.4894 14.584 11.2323 14.3269 10.9153 14.3269H7.04435C6.72726 14.3269 6.47021 14.584 6.47021 14.9011V19.1707C6.47021 19.4878 6.72726 19.7448 7.04435 19.7448ZM7.61849 18.5965V16.1214L10.3411 17.4602V18.5965H7.61849Z" fill="white"/>
</svg>
