<svg width="40" height="40" viewBox="0 0 40 40" fill="none" xmlns="http://www.w3.org/2000/svg">
<g clip-path="url(#clip0_76_224)">
<path d="M20 0C8.9722 0 0 8.9722 0 20C0 31.0278 8.9722 40 20 40C31.0278 40 40 31.0278 40 20C40 8.9722 31.0278 0 20 0ZM20 37.5C10.3503 37.5 2.50001 29.6497 2.50001 20C2.50001 10.3503 10.3503 2.50001 20 2.50001C29.6497 2.50001 37.5 10.3503 37.5 20C37.5 29.6497 29.6497 37.5 20 37.5Z" fill="black"/>
<path d="M21.25 7.50003H18.75V20.5176L26.6162 28.3838L28.3838 26.6162L21.25 19.4824V7.50003Z" fill="black"/>
</g>
<defs>
<clipPath id="clip0_76_224">
<rect width="40" height="40" fill="white"/>
</clipPath>
</defs>
</svg>
