<svg width="40" height="40" viewBox="0 0 40 40" fill="none" xmlns="http://www.w3.org/2000/svg">
<path d="M36.4844 4.76562H3.51562C1.57711 4.76562 0 6.34273 0 8.28125V31.7188C0 33.6573 1.57711 35.2344 3.51562 35.2344H36.4844C38.4229 35.2344 40 33.6573 40 31.7188V8.28125C40 6.34273 38.4229 4.76562 36.4844 4.76562ZM37.6562 31.7188C37.6562 32.3649 37.1305 32.8906 36.4844 32.8906H3.51562C2.86945 32.8906 2.34375 32.3649 2.34375 31.7188V8.28125C2.34375 7.63508 2.86945 7.10938 3.51562 7.10938H36.4844C37.1305 7.10938 37.6562 7.63508 37.6562 8.28125V31.7188Z" fill="black"/>
<path d="M11.7188 18.8281C7.84172 18.8281 4.6875 21.9823 4.6875 25.8594V27.0312C4.6875 28.9698 6.26461 30.5469 8.20312 30.5469H15.2344C17.1729 30.5469 18.75 28.9698 18.75 27.0312V25.8594C18.75 21.9823 15.5958 18.8281 11.7188 18.8281ZM16.4062 27.0312C16.4062 27.6774 15.8805 28.2031 15.2344 28.2031H8.20312C7.55695 28.2031 7.03125 27.6774 7.03125 27.0312V25.8594C7.03125 23.2747 9.13406 21.1719 11.7188 21.1719C14.3034 21.1719 16.4062 23.2747 16.4062 25.8594V27.0312Z" fill="black"/>
<path d="M11.7188 9.45312C9.13406 9.45312 7.03125 11.5559 7.03125 14.1406C7.03125 16.7253 9.13406 18.8281 11.7188 18.8281C14.3034 18.8281 16.4062 16.7253 16.4062 14.1406C16.4062 11.5559 14.3034 9.45312 11.7188 9.45312ZM11.7188 16.4844C10.4264 16.4844 9.375 15.433 9.375 14.1406C9.375 12.8483 10.4264 11.7969 11.7188 11.7969C13.0111 11.7969 14.0625 12.8483 14.0625 14.1406C14.0625 15.433 13.0111 16.4844 11.7188 16.4844Z" fill="black"/>
<path d="M34.1406 25.8594H22.4219C21.7747 25.8594 21.25 26.3841 21.25 27.0312C21.25 27.6784 21.7747 28.2031 22.4219 28.2031H34.1406C34.7878 28.2031 35.3125 27.6784 35.3125 27.0312C35.3125 26.3841 34.7878 25.8594 34.1406 25.8594Z" fill="black"/>
<path d="M34.1406 21.1719H22.4219C21.7747 21.1719 21.25 21.6966 21.25 22.3438C21.25 22.9909 21.7747 23.5156 22.4219 23.5156H34.1406C34.7878 23.5156 35.3125 22.9909 35.3125 22.3438C35.3125 21.6966 34.7878 21.1719 34.1406 21.1719Z" fill="black"/>
<path d="M34.1406 16.4844H22.4219C21.7747 16.4844 21.25 17.0091 21.25 17.6562C21.25 18.3034 21.7747 18.8281 22.4219 18.8281H34.1406C34.7878 18.8281 35.3125 18.3034 35.3125 17.6562C35.3125 17.0091 34.7878 16.4844 34.1406 16.4844Z" fill="black"/>
<path d="M31.7969 11.7969H24.7656C24.1184 11.7969 23.5938 12.3216 23.5938 12.9688C23.5938 13.6159 24.1184 14.1406 24.7656 14.1406H31.7969C32.4441 14.1406 32.9688 13.6159 32.9688 12.9688C32.9688 12.3216 32.4441 11.7969 31.7969 11.7969Z" fill="black"/>
</svg>
