<svg width="72" height="17" viewBox="0 0 72 17" fill="none" xmlns="http://www.w3.org/2000/svg">
<path d="M1.88 1.02667V14.56H9.83333V16H0.153333V1.02667H1.88ZM14.022 16.3267C12.4398 16.3267 11.2264 15.9067 10.382 15.0667C9.87976 14.5689 9.62865 14.0156 9.62865 13.4067C9.62865 12.7933 9.87753 12.2378 10.3753 11.74C11.2331 10.8822 12.4486 10.4533 14.022 10.4533C15.302 10.4533 16.3575 10.7533 17.1886 11.3533V9.08667H13.122V7.86667H18.3753V16.6467H17.1886V15.4267C16.3575 16.0267 15.302 16.3267 14.022 16.3267ZM11.282 12.5467C11.0242 12.8444 10.8953 13.1311 10.8953 13.4067C10.8953 13.6956 11.0242 13.9889 11.282 14.2867C11.9264 14.8956 12.862 15.2022 14.0886 15.2067C15.3553 15.2111 16.2975 14.9089 16.9153 14.3C17.1909 14.0289 17.3286 13.7311 17.3286 13.4067C17.3286 13.0911 17.2109 12.8156 16.9753 12.58C16.9264 12.5311 16.8886 12.4956 16.862 12.4733C16.262 11.8733 15.3375 11.5711 14.0886 11.5667C12.9064 11.5622 11.9709 11.8889 11.282 12.5467ZM30.0088 7.82667V16.6133L28.9688 15.8533L21.2621 9.95333V16H19.9688V7.54L28.7488 14.2V7.82667H30.0088ZM35.5164 16.3267C34.2853 16.3267 33.2542 15.9067 32.423 15.0667C31.5608 14.1956 31.1297 13.1622 31.1297 11.9667C31.1297 10.7489 31.5564 9.71333 32.4097 8.86C33.2675 8.00222 34.303 7.57333 35.5164 7.57333C36.1786 7.57333 36.7564 7.69111 37.2497 7.92667C37.6097 8.1 38.0897 8.43778 38.6897 8.94V0.306666L39.9097 0.3V16.6533L38.6897 16.6467V14.9933L38.6164 15.0667C37.7764 15.9067 36.743 16.3267 35.5164 16.3267ZM33.2897 9.66667C33.2675 9.68889 33.2364 9.71556 33.1964 9.74667C32.6808 10.2622 32.423 11.0022 32.423 11.9667C32.423 12.9178 32.7008 13.68 33.2564 14.2533C33.8164 14.84 34.5697 15.1333 35.5164 15.1333C36.3964 15.1333 37.1564 14.8222 37.7964 14.2C38.4364 13.5778 38.7564 12.8333 38.7564 11.9667C38.7564 11.5489 38.6675 11.1289 38.4897 10.7067C38.303 10.2578 38.0564 9.91111 37.7497 9.66667C37.1497 9.06667 36.4053 8.76667 35.5164 8.76667C34.6319 8.76667 33.8897 9.06667 33.2897 9.66667ZM49.9119 16H48.1852V2.39333H42.4585V1.02667H55.4185V2.39333H49.9119V16ZM52.8899 7.86667L52.8833 16H51.5299L51.5233 7.86667H52.8899ZM52.8899 4.19333V5.42H51.5233V4.19333H52.8899ZM61.5371 14.24L62.3971 15.1C61.5216 15.94 60.4794 16.36 59.2705 16.36C58.0482 16.36 57.0171 15.94 56.1771 15.1C55.3371 14.26 54.9171 13.2289 54.9171 12.0067C54.9171 10.7978 55.3416 9.76889 56.1905 8.92C57.0394 8.07111 58.0682 7.64667 59.2771 7.64667C60.4549 7.64667 61.4727 8.05556 62.3305 8.87333L61.5038 9.73333C60.8994 9.12889 60.1549 8.82667 59.2705 8.82667C58.3949 8.82667 57.6638 9.11778 57.0771 9.7C57.0594 9.72222 57.0282 9.75111 56.9838 9.78667C56.446 10.3244 56.1771 11.0644 56.1771 12.0067C56.1771 12.9178 56.466 13.6733 57.0438 14.2733C57.6216 14.8733 58.3638 15.1733 59.2705 15.1733C60.1594 15.1733 60.9149 14.8622 61.5371 14.24ZM65.131 12.9067V16H63.8377V0.266666H65.131V11.1733L68.5177 7.57333L69.4177 8.44L66.2843 11.68L71.631 15.64L70.811 16.6133L65.4577 12.5467L65.131 12.9067Z" fill="white"/>
</svg>
