<svg width="144" height="34" viewBox="0 0 144 34" fill="none" xmlns="http://www.w3.org/2000/svg">
<path d="M3.76 2.05333V29.12H19.6667V32H0.306667V2.05333H3.76ZM28.044 32.6533C24.8795 32.6533 22.4528 31.8133 20.764 30.1333C19.7595 29.1378 19.2573 28.0311 19.2573 26.8133C19.2573 25.5867 19.7551 24.4756 20.7506 23.48C22.4662 21.7644 24.8973 20.9067 28.044 20.9067C30.604 20.9067 32.7151 21.5067 34.3773 22.7067V18.1733H26.244V15.7333H36.7506V33.2933H34.3773V30.8533C32.7151 32.0533 30.604 32.6533 28.044 32.6533ZM22.564 25.0933C22.0484 25.6889 21.7906 26.2622 21.7906 26.8133C21.7906 27.3911 22.0484 27.9778 22.564 28.5733C23.8528 29.7911 25.724 30.4044 28.1773 30.4133C30.7106 30.4222 32.5951 29.8178 33.8306 28.6C34.3817 28.0578 34.6573 27.4622 34.6573 26.8133C34.6573 26.1822 34.4217 25.6311 33.9506 25.16C33.8528 25.0622 33.7773 24.9911 33.724 24.9467C32.524 23.7467 30.6751 23.1422 28.1773 23.1333C25.8128 23.1244 23.9417 23.7778 22.564 25.0933ZM60.0176 15.6533V33.2267L57.9376 31.7067L42.5243 19.9067V32H39.9376V15.08L57.4976 28.4V15.6533H60.0176ZM71.0328 32.6533C68.5705 32.6533 66.5083 31.8133 64.8461 30.1333C63.1216 28.3911 62.2594 26.3244 62.2594 23.9333C62.2594 21.4978 63.1128 19.4267 64.8194 17.72C66.535 16.0044 68.6061 15.1467 71.0328 15.1467C72.3572 15.1467 73.5128 15.3822 74.4994 15.8533C75.2194 16.2 76.1794 16.8756 77.3794 17.88V0.613333L79.8194 0.599999V33.3067L77.3794 33.2933V29.9867L77.2328 30.1333C75.5528 31.8133 73.4861 32.6533 71.0328 32.6533ZM66.5794 19.3333C66.535 19.3778 66.4728 19.4311 66.3928 19.4933C65.3616 20.5244 64.8461 22.0044 64.8461 23.9333C64.8461 25.8356 65.4016 27.36 66.5128 28.5067C67.6328 29.68 69.1394 30.2667 71.0328 30.2667C72.7928 30.2667 74.3128 29.6444 75.5928 28.4C76.8728 27.1556 77.5128 25.6667 77.5128 23.9333C77.5128 23.0978 77.335 22.2578 76.9794 21.4133C76.6061 20.5156 76.1128 19.8222 75.4994 19.3333C74.2994 18.1333 72.8105 17.5333 71.0328 17.5333C69.2639 17.5333 67.7794 18.1333 66.5794 19.3333ZM99.8238 32H96.3704V4.78667H84.9171V2.05333H110.837V4.78667H99.8238V32ZM105.78 15.7333L105.767 32H103.06L103.047 15.7333H105.78ZM105.78 8.38667V10.84H103.047V8.38667H105.78ZM123.074 28.48L124.794 30.2C123.043 31.88 120.959 32.72 118.541 32.72C116.096 32.72 114.034 31.88 112.354 30.2C110.674 28.52 109.834 26.4578 109.834 24.0133C109.834 21.5956 110.683 19.5378 112.381 17.84C114.079 16.1422 116.136 15.2933 118.554 15.2933C120.91 15.2933 122.945 16.1111 124.661 17.7467L123.008 19.4667C121.799 18.2578 120.31 17.6533 118.541 17.6533C116.79 17.6533 115.328 18.2356 114.154 19.4C114.119 19.4444 114.056 19.5022 113.968 19.5733C112.892 20.6489 112.354 22.1289 112.354 24.0133C112.354 25.8356 112.932 27.3467 114.088 28.5467C115.243 29.7467 116.728 30.3467 118.541 30.3467C120.319 30.3467 121.83 29.7244 123.074 28.48ZM130.262 25.8133V32H127.675V0.533332H130.262V22.3467L137.035 15.1467L138.835 16.88L132.569 23.36L143.262 31.28L141.622 33.2267L130.915 25.0933L130.262 25.8133Z" fill="url(#paint0_linear_76_109)"/>
<defs>
<linearGradient id="paint0_linear_76_109" x1="1.36449" y1="18" x2="152.766" y2="18" gradientUnits="userSpaceOnUse">
<stop stop-color="#EC7AB7"/>
<stop offset="1" stop-color="#EC7A7A"/>
</linearGradient>
</defs>
</svg>
