<svg width="40" height="40" viewBox="0 0 40 40" fill="none" xmlns="http://www.w3.org/2000/svg">
<g clip-path="url(#clip0_40_365)">
<path d="M38.7489 18.7725H22.916C22.226 18.7725 21.666 18.2206 21.666 17.5407C21.666 16.8607 22.226 16.3088 22.916 16.3088H38.7489C39.4389 16.3088 39.9989 16.8607 39.9989 17.5407C39.9989 18.2206 39.4389 18.7725 38.7489 18.7725Z" fill="url(#paint0_linear_40_365)"/>
<path d="M32.4989 24.9315C32.1788 24.9315 31.859 24.8116 31.6155 24.5704C31.1272 24.0889 31.1272 23.3088 31.6155 22.8276L36.9821 17.5392L31.6155 12.2504C31.1272 11.7692 31.1272 10.9891 31.6155 10.508C32.104 10.0265 32.8956 10.0265 33.3839 10.508L39.6337 16.667C40.122 17.1482 40.122 17.9283 39.6337 18.4095L33.3839 24.5686C33.1389 24.8116 32.819 24.9315 32.4989 24.9315Z" fill="url(#paint1_linear_40_365)"/>
<path d="M13.333 39.7133C12.9763 39.7133 12.6378 39.664 12.2997 39.5605L2.26983 36.2674C0.905123 35.7977 0 34.5445 0 33.1437V3.58022C0 1.76859 1.49501 0.295288 3.33333 0.295288C3.68976 0.295288 4.02819 0.344609 4.36662 0.448062L14.3962 3.74111C15.7612 4.21086 16.666 5.46403 16.666 6.86485V36.4283C16.666 38.24 15.1713 39.7133 13.333 39.7133ZM3.33333 2.75891C2.87497 2.75891 2.49992 3.12852 2.49992 3.58022V33.1437C2.49992 33.4935 2.73826 33.8186 3.07821 33.9352L13.0611 37.2136C13.1328 37.2364 13.2262 37.2497 13.333 37.2497C13.7914 37.2497 14.1661 36.88 14.1661 36.4283V6.86485C14.1661 6.5151 13.9278 6.19 13.5878 6.07332L3.60493 2.795C3.53321 2.77214 3.43983 2.75891 3.33333 2.75891Z" fill="url(#paint2_linear_40_365)"/>
<path d="M25.4157 13.4347C24.7257 13.4347 24.1657 12.8829 24.1657 12.2029V4.81203C24.1657 3.68037 23.231 2.75891 22.0826 2.75891H3.33321C2.64323 2.75891 2.08325 2.20706 2.08325 1.5271C2.08325 0.847138 2.64323 0.295288 3.33321 0.295288H22.0826C24.6109 0.295288 26.6656 2.32044 26.6656 4.81203V12.2029C26.6656 12.8829 26.1056 13.4347 25.4157 13.4347Z" fill="url(#paint3_linear_40_365)"/>
<path d="M22.0826 34.786H15.416C14.726 34.786 14.166 34.2342 14.166 33.5542C14.166 32.8742 14.726 32.3224 15.416 32.3224H22.0826C23.231 32.3224 24.1657 31.4009 24.1657 30.2693V22.8784C24.1657 22.1985 24.7257 21.6466 25.4157 21.6466C26.1056 21.6466 26.6656 22.1985 26.6656 22.8784V30.2693C26.6656 32.7609 24.6109 34.786 22.0826 34.786Z" fill="url(#paint4_linear_40_365)"/>
</g>
<defs>
<linearGradient id="paint0_linear_40_365" x1="30.8324" y1="16.3088" x2="30.8324" y2="18.7725" gradientUnits="userSpaceOnUse">
<stop stop-color="#EC7AB7"/>
<stop offset="1" stop-color="#EC7A7A"/>
</linearGradient>
<linearGradient id="paint1_linear_40_365" x1="35.6246" y1="10.1469" x2="35.6246" y2="24.9315" gradientUnits="userSpaceOnUse">
<stop stop-color="#EC7AB7"/>
<stop offset="1" stop-color="#EC7A7A"/>
</linearGradient>
<linearGradient id="paint2_linear_40_365" x1="8.33302" y1="0.295288" x2="8.33302" y2="39.7133" gradientUnits="userSpaceOnUse">
<stop stop-color="#EC7AB7"/>
<stop offset="1" stop-color="#EC7A7A"/>
</linearGradient>
<linearGradient id="paint3_linear_40_365" x1="14.3744" y1="0.295288" x2="14.3744" y2="13.4347" gradientUnits="userSpaceOnUse">
<stop stop-color="#EC7AB7"/>
<stop offset="1" stop-color="#EC7A7A"/>
</linearGradient>
<linearGradient id="paint4_linear_40_365" x1="20.4158" y1="21.6466" x2="20.4158" y2="34.786" gradientUnits="userSpaceOnUse">
<stop stop-color="#EC7AB7"/>
<stop offset="1" stop-color="#EC7A7A"/>
</linearGradient>
<clipPath id="clip0_40_365">
<rect width="40" height="39.4192" fill="white" transform="translate(0 0.294067)"/>
</clipPath>
</defs>
</svg>
