<svg width="40" height="40" viewBox="0 0 40 40" fill="none" xmlns="http://www.w3.org/2000/svg">
<path d="M39.3691 19L40 18.2118L39.3689 17.4232L39.9999 16.6345L39.3688 15.846L39.9621 15.1042L39.1108 13.6851H38.7734C37.1423 13.6851 35.8154 12.3775 35.8154 10.7701V10.1871H4.18477V10.7701C4.18477 12.3775 2.85789 13.6851 1.2268 13.6851H0.889375L0.0379688 15.1044L0.63125 15.8461L7.8125e-05 16.6346L0.631094 17.4233L0 18.2118L0.630938 19L0 19.7881L0.631016 20.5766L0 21.365L0.631016 22.1535L0 22.9418L0.631016 23.7301L0.0377344 24.4711L0.889375 25.8896H1.22672C2.81406 25.8896 4.11188 27.1129 4.18125 28.6747L4.20602 29.2322H35.7939L35.8187 28.6747C35.888 27.1129 37.1858 25.8896 38.7732 25.8896H39.1105L39.9622 24.4711L39.3689 23.7301L40 22.9418L39.369 22.1534L40 21.365L39.369 20.5766L40 19.7881L39.3691 19ZM38.4931 16.6347L37.8621 17.4234L38.493 18.2116L37.862 19L38.493 19.7882L37.862 20.5766L38.493 21.365L37.862 22.1534L38.493 22.9418L37.862 23.7301L38.5309 24.5655L38.4276 24.7375C36.5539 24.8891 35.0318 26.2622 34.6999 28.0662H5.30016C4.9682 26.2622 3.44617 24.8891 1.5725 24.7375L1.46922 24.5655L2.13805 23.7301L1.50703 22.9418L2.13805 22.1534L1.50695 21.365L2.13797 20.5766L1.50695 19.7882L2.13805 18.9999L1.50695 18.2116L2.13789 17.4233L1.50688 16.6346L2.13781 15.8462L1.46898 15.0098L1.57266 14.8368C3.4982 14.6792 5.05391 13.2176 5.3257 11.3529H34.6741C34.9459 13.2176 36.5017 14.6792 38.4272 14.8368L38.5309 15.0098L37.862 15.8462L38.4931 16.6347Z" fill="url(#paint0_linear_40_268)"/>
<path d="M33.4092 25.8115H6.59033V26.9775H33.4092V25.8115Z" fill="url(#paint1_linear_40_268)"/>
<path d="M8.66172 14.8448H7.47852V16.0109H8.66172V14.8448Z" fill="url(#paint2_linear_40_268)"/>
<path d="M33.0801 19.8617L29.5006 16.3342C28.5258 15.3736 27.2296 14.8445 25.8509 14.8445H20.977H10.219V16.0105H21.0189C21.3081 18.0703 23.1054 19.6618 25.2739 19.6618H31.204L32.0807 20.5258H25.2739V21.6918H32.7049C32.7072 21.7262 32.7101 21.7605 32.7101 21.7953C32.7101 22.2142 32.5444 22.608 32.2436 22.9045C31.9428 23.201 31.5431 23.3642 31.1181 23.3642H10.219V24.5302H31.1179C31.859 24.5302 32.5558 24.2457 33.0801 23.729C33.6043 23.2124 33.8931 22.5257 33.8931 21.7954C33.8931 21.0651 33.6044 20.3784 33.0801 19.8617ZM25.2738 18.4957V18.4958C23.7592 18.4958 22.4938 17.4245 22.2166 16.0104H25.851C26.9136 16.0104 27.9126 16.4182 28.6638 17.1587L30.0206 18.4957H25.2738Z" fill="url(#paint3_linear_40_268)"/>
<path d="M8.59849 23.3645H7.41528V24.5305H8.59849V23.3645Z" fill="url(#paint4_linear_40_268)"/>
<path d="M11.4808 17.1053H10.2976V18.2714H11.4808V17.1053Z" fill="url(#paint5_linear_40_268)"/>
<path d="M18.5799 17.1053H17.3967V18.2714H18.5799V17.1053Z" fill="url(#paint6_linear_40_268)"/>
<path d="M13.8473 17.1053H12.6641V18.2714H13.8473V17.1053Z" fill="url(#paint7_linear_40_268)"/>
<path d="M16.2137 17.1053H15.0305V18.2714H16.2137V17.1053Z" fill="url(#paint8_linear_40_268)"/>
<defs>
<linearGradient id="paint0_linear_40_268" x1="20" y1="10.1871" x2="20" y2="29.2322" gradientUnits="userSpaceOnUse">
<stop stop-color="#EC7AB7"/>
<stop offset="1" stop-color="#EC7A7A"/>
</linearGradient>
<linearGradient id="paint1_linear_40_268" x1="19.9998" y1="25.8115" x2="19.9998" y2="26.9775" gradientUnits="userSpaceOnUse">
<stop stop-color="#EC7AB7"/>
<stop offset="1" stop-color="#EC7A7A"/>
</linearGradient>
<linearGradient id="paint2_linear_40_268" x1="8.07012" y1="14.8448" x2="8.07012" y2="16.0109" gradientUnits="userSpaceOnUse">
<stop stop-color="#EC7AB7"/>
<stop offset="1" stop-color="#EC7A7A"/>
</linearGradient>
<linearGradient id="paint3_linear_40_268" x1="22.056" y1="14.8445" x2="22.056" y2="24.5302" gradientUnits="userSpaceOnUse">
<stop stop-color="#EC7AB7"/>
<stop offset="1" stop-color="#EC7A7A"/>
</linearGradient>
<linearGradient id="paint4_linear_40_268" x1="8.00688" y1="23.3645" x2="8.00688" y2="24.5305" gradientUnits="userSpaceOnUse">
<stop stop-color="#EC7AB7"/>
<stop offset="1" stop-color="#EC7A7A"/>
</linearGradient>
<linearGradient id="paint5_linear_40_268" x1="10.8892" y1="17.1053" x2="10.8892" y2="18.2714" gradientUnits="userSpaceOnUse">
<stop stop-color="#EC7AB7"/>
<stop offset="1" stop-color="#EC7A7A"/>
</linearGradient>
<linearGradient id="paint6_linear_40_268" x1="17.9883" y1="17.1053" x2="17.9883" y2="18.2714" gradientUnits="userSpaceOnUse">
<stop stop-color="#EC7AB7"/>
<stop offset="1" stop-color="#EC7A7A"/>
</linearGradient>
<linearGradient id="paint7_linear_40_268" x1="13.2557" y1="17.1053" x2="13.2557" y2="18.2714" gradientUnits="userSpaceOnUse">
<stop stop-color="#EC7AB7"/>
<stop offset="1" stop-color="#EC7A7A"/>
</linearGradient>
<linearGradient id="paint8_linear_40_268" x1="15.6221" y1="17.1053" x2="15.6221" y2="18.2714" gradientUnits="userSpaceOnUse">
<stop stop-color="#EC7AB7"/>
<stop offset="1" stop-color="#EC7A7A"/>
</linearGradient>
</defs>
</svg>
