<svg width="40" height="40" viewBox="0 0 40 40" fill="none" xmlns="http://www.w3.org/2000/svg">
<g clip-path="url(#clip0_76_227)">
<path d="M20 0C8.94508 0 0 8.94586 0 20C0 31.0549 8.94586 40 20 40C31.0549 40 40 31.0541 40 20C40 8.94508 31.0541 0 20 0ZM20 36.875C10.6724 36.875 3.125 29.327 3.125 20C3.125 10.6724 10.673 3.125 20 3.125C29.3276 3.125 36.875 10.673 36.875 20C36.875 29.3276 29.327 36.875 20 36.875Z" fill="black"/>
<path d="M20 10.0685C19.137 10.0685 18.4375 10.768 18.4375 11.631V21.693C18.4375 22.5559 19.137 23.2555 20 23.2555C20.863 23.2555 21.5625 22.5559 21.5625 21.693V11.631C21.5625 10.768 20.863 10.0685 20 10.0685Z" fill="black"/>
<path d="M20 29.3875C21.165 29.3875 22.1094 28.4431 22.1094 27.2781C22.1094 26.1131 21.165 25.1687 20 25.1687C18.835 25.1687 17.8906 26.1131 17.8906 27.2781C17.8906 28.4431 18.835 29.3875 20 29.3875Z" fill="black"/>
</g>
<defs>
<clipPath id="clip0_76_227">
<rect width="40" height="40" fill="white"/>
</clipPath>
</defs>
</svg>
